<svg width="270" height="70" fill="none" xmlns="http://www.w3.org/2000/svg"><path d="M.3 69h4v-4.3h2.2c3.3 0 5.5-2 5.5-5.1 0-3.1-2.2-5.1-5.4-5.1H.3V69Zm4-7.4v-4h1.4c1.3 0 2.2.7 2.2 2 0 1.2-.9 2-2.2 2H4.3ZM13.4 69h4v-4.8h1.4l2.5 4.8h4.3l-3-5.4c1.6-.8 2.5-2.2 2.5-4.2 0-3.1-2.1-5-5.4-5h-6.3V69Zm4-7.9v-3.5h1.4c1.4 0 2.2.5 2.2 1.8 0 1.2-.8 1.7-2.2 1.7h-1.4ZM30.6 69l.8-2.8h4.8l.9 2.8h4.2l-4.8-14.5h-5.4L26.3 69h4.3Zm1.7-5.7 1.5-4.8 1.5 4.8h-3ZM55.6 60c-.3-3.7-3-5.7-6.6-5.7-4 0-7 2.6-7 7.4 0 4.9 3 7.5 7 7.5 4.3 0 6.4-3 6.6-5.4h-4c-.2 1.2-1 2-2.5 2-2 0-3-1.4-3-4s1-4.1 3-4.1c1.5 0 2.4.9 2.5 2.2h4ZM57 57.6h4.4V69h3.9V57.6h4.4v-3.1H57v3.1ZM75 54.5h-3.9V69h4V54.5ZM90.5 60c-.3-3.7-3-5.7-6.6-5.7-3.9 0-7 2.6-7 7.4 0 4.9 3 7.5 7 7.5 4.3 0 6.4-3 6.6-5.4h-4c-.2 1.2-1 2-2.5 2-2 0-3-1.4-3-4s1-4.1 3-4.1c1.6 0 2.4.9 2.5 2.2h4ZM101 54.5v9c0 1.3-1 2.3-2.4 2.3-1.3 0-2.3-1-2.3-2.4v-9h-4v9.4c0 3.3 2.5 5.4 6.3 5.4 3.7 0 6.3-2.1 6.3-5.4v-9.3h-4ZM106.8 54.5V69h3.8v-8.5h.1L114 69h2.3l3.3-8.3V69h4V54.5h-5l-3.4 8.2h-.1l-3.4-8.2h-5ZM133.2 69l.8-2.8h4.8l.8 2.8h4.3l-4.8-14.5h-5.4L128.9 69h4.3Zm1.7-5.7 1.4-4.8h.2l1.4 4.8h-3ZM145.3 69h4v-4.8h1.3l2.6 4.8h4.3l-3-5.4c1.6-.8 2.5-2.2 2.5-4.2 0-3.1-2.2-5-5.4-5h-6.3V69Zm4-7.9v-3.5h1.3c1.4 0 2.3.5 2.3 1.8 0 1.2-.9 1.7-2.3 1.7h-1.3ZM158.3 57.6h4.3V69h4V57.6h4.3v-3.1h-12.6v3.1ZM185.8 59.3h4c-.3-3-3-5-6.4-5-3.9 0-7 2.7-7 7.5 0 4.6 2.8 7.4 7 7.4 3.9 0 6.6-2.3 6.6-6.3v-2h-6.5v2.8h2.7c0 1.3-1 2-2.7 2-2 0-3.1-1.4-3.1-4 0-2.5 1.1-4 3.1-4 1.2 0 2 .6 2.3 1.6ZM195.2 69l.8-2.8h4.8l.8 2.8h4.3L201 54.5h-5.4L190.9 69h4.3Zm1.7-5.7 1.4-4.8h.1l1.5 4.8h-3ZM207.3 69h9.8v-3.2h-5.9V54.5h-4V69ZM218.7 69h9.8v-3.2h-5.8V54.5h-4V69ZM230.1 69h10.5v-3.2h-6.5v-2.5h6v-3.2h-6v-2.5h6.5v-3.1h-10.5V69ZM242.6 69h4v-4.8h1.3l2.6 4.8h4.2l-3-5.4c1.6-.8 2.6-2.2 2.6-4.2 0-3.1-2.2-5-5.4-5h-6.3V69Zm4-7.9v-3.5h1.3c1.4 0 2.2.5 2.2 1.8 0 1.2-.8 1.7-2.2 1.7h-1.4ZM254.7 54.5l5.3 10V69h4v-4.6l5.3-10h-4.4l-2.9 6-3-6h-4.3Z" fill="#fff"/><path d="M118 2c0-1.1.9-2 2-2h28a2 2 0 0 1 2 2v28a2 2 0 0 1-2 2h-28a2 2 0 0 1-2-2V2Z" fill="#0278FE"/><path d="M150 6h-32v2h32V6Z" fill="#2A2C2F"/><path d="M131 6h-2v26h2V6Z" fill="#2A2C2F"/></svg>